<svg id="brand-logo-icon" xmlns="http://www.w3.org/2000/svg" width="140" height="140" viewBox="0 0 140 140">
  <rect id="Rectangle_1447" data-name="Rectangle 1447" width="140" height="140" fill="#231f20"/>
  <g id="brand-logo-white-127-120" transform="translate(6 11)">
    <path id="Path_1" data-name="Path 1" d="M806.716,292.179A14.112,14.112,0,0,1,792.678,306.3H792.6a14.119,14.119,0,0,1-14.041-12.623v-3A14.117,14.117,0,0,1,792.6,278.06h.079a14.118,14.118,0,0,1,14.037,14.119Z" transform="translate(-679.731 -242.764)" fill="#fff"/>
    <path id="Path_2" data-name="Path 2" d="M758.236,570.247v14.119h-.079a21.089,21.089,0,0,1-5.4,14.118,20.643,20.643,0,0,1-1.585,1.594,21.084,21.084,0,0,1-13.836,5.458h-.731A14.02,14.02,0,0,1,730,603.7a14.164,14.164,0,0,1-5.25-5.214,14,14,0,0,1-1.8-5.556v-3a14.057,14.057,0,0,1,4.265-8.683,7.311,7.311,0,0,0,.83-.74,7.043,7.043,0,0,0,1.759-3.19h.2v-8.566a13.98,13.98,0,0,1,1.412-4.817q.187-.381.4-.741a14.121,14.121,0,0,1,12.229-7.058h.079a14.117,14.117,0,0,1,14.038,14.117Z" transform="translate(-631.172 -485.536)" fill="#fff"/>
    <path id="Path_3" data-name="Path 3" d="M82.817,7.059A14.114,14.114,0,0,0,70.591,0H14.116a14.119,14.119,0,1,0,0,28.238H70.591A14.12,14.12,0,0,0,82.817,7.059ZM64.124,26.673l-.034-.019a.217.217,0,0,0,.034.018c.066.034.133.07.2.1C64.257,26.742,64.19,26.709,64.124,26.673Zm.4.2a.156.156,0,0,0-.033-.015l-.025-.013.058.025c.037.02.076.036.114.055-.028-.014-.073-.032-.109-.05Z" transform="translate(0.001)" fill="#fff"/>
    <path id="Path_4" data-name="Path 4" d="M82.79,285.119a14.144,14.144,0,0,0-5.138-5.105,14,14,0,0,0-7.02-1.872h-.039v-.081H42.354v.081h-.119a42.726,42.726,0,0,0-6.956.569,41.934,41.934,0,0,0-14.1,5.046q-1.127.651-2.206,1.363A42.582,42.582,0,0,0,7.058,297q-.732,1.1-1.4,2.243A41.981,41.981,0,0,0,.584,313.357,42.619,42.619,0,0,0,0,320.376v.039a42.686,42.686,0,0,0,.593,7.059,41.908,41.908,0,0,0,5.119,14.119q.635,1.1,1.348,2.158A42.52,42.52,0,0,0,19.089,355.7q1.024.673,2.091,1.286a41.9,41.9,0,0,0,14.12,5.061,42.675,42.675,0,0,0,6.938.566h.119a42.7,42.7,0,0,0,7.059-.605,42.075,42.075,0,0,0,11.069-3.528q1.561-.75,3.046-1.62.942-.552,1.851-1.149A42.526,42.526,0,0,0,77.642,343.4q.576-.889,1.112-1.806c.584-1,1.127-2.031,1.626-3.078a41.342,41.342,0,0,0,1.65-3.981,41.965,41.965,0,0,0,1.838-7.06,42.551,42.551,0,0,0,.594-7.059H84.7V292.179A13.987,13.987,0,0,0,82.79,285.119ZM28.236,320.407A14.156,14.156,0,0,1,41.3,306.3c.348-.027.7-.042,1.051-.042H42.4c.367,0,.73.013,1.089.042A14.152,14.152,0,0,1,56.48,318.907a14.4,14.4,0,0,1,.079,1.505h0a14.364,14.364,0,0,1-.079,1.508,14.05,14.05,0,0,1-1.806,5.551,14.207,14.207,0,0,1-5.254,5.237,14.058,14.058,0,0,1-6,1.832q-.508.036-1.023.037H42.35c-.331,0-.659-.013-.985-.037a14.155,14.155,0,0,1-13.129-14.124Z" transform="translate(0 -242.764)" fill="#fff"/>
  </g>
</svg>
