<svg id="logo192" xmlns="http://www.w3.org/2000/svg" width="192" height="192" viewBox="0 0 192 192">
  <rect id="Rectangle_1447" data-name="Rectangle 1447" width="192" height="192" rx="14" fill="#231f20"/>
  <g id="brand-logo-white-127-120" transform="translate(6 10)">
    <path id="Path_1" data-name="Path 1" d="M818.24,298.3a20.061,20.061,0,0,1-19.783,20.238h-.111a20.025,20.025,0,0,1-19.787-18.09v-4.3a20.3,20.3,0,0,1,2.553-7.971,19.828,19.828,0,0,1,17.234-10.118h.111A20.07,20.07,0,0,1,818.24,298.3Z" transform="translate(-639.286 -227.469)" fill="#fff"/>
    <path id="Path_2" data-name="Path 2" d="M772.681,576.364V596.6h-.111a30.522,30.522,0,0,1-7.6,20.236,29.716,29.716,0,0,1-21.733,10.109H742.2a19.507,19.507,0,0,1-9.322-2.638,20.227,20.227,0,0,1-9.943-15.438v-4.3a20.281,20.281,0,0,1,6.011-12.445,10.354,10.354,0,0,0,1.17-1.061,10.143,10.143,0,0,0,2.479-4.572h.29V574.213a20.3,20.3,0,0,1,1.989-6.9q.263-.546.563-1.063a19.841,19.841,0,0,1,17.234-10.116h.111a20.068,20.068,0,0,1,19.783,20.234Z" transform="translate(-593.617 -454.946)" fill="#fff"/>
    <path id="Path_3" data-name="Path 3" d="M116.709,10.118A19.832,19.832,0,0,0,99.481,0H19.893A19.958,19.958,0,0,0,.679,15,20.384,20.384,0,0,0,9.945,37.764a19.5,19.5,0,0,0,9.948,2.711H99.481a19.841,19.841,0,0,0,17.228-10.121,20.539,20.539,0,0,0,0-20.236ZM90.366,38.232l-.048-.027a.3.3,0,0,0,.048.025c.093.049.188.1.284.147C90.554,38.33,90.459,38.283,90.366,38.232Zm.571.289a.218.218,0,0,0-.047-.022l-.036-.018.082.036c.052.029.107.051.161.078C91.051,38.572,90.989,38.546,90.937,38.521Z" transform="translate(0.001 0)" fill="#fff"/>
    <path id="Path_4" data-name="Path 4" d="M116.671,288.178a20.1,20.1,0,0,0-7.241-7.318,19.469,19.469,0,0,0-9.892-2.684h-.055v-.116H59.687v.116h-.168a59.19,59.19,0,0,0-9.792.814,58.456,58.456,0,0,0-19.883,7.233q-1.589.933-3.109,1.954A60.526,60.526,0,0,0,9.946,305.2q-1.032,1.572-1.968,3.215A60.838,60.838,0,0,0,.823,328.653,62.107,62.107,0,0,0,0,338.713v.056a62.2,62.2,0,0,0,.835,10.118A60.728,60.728,0,0,0,8.05,369.124q.894,1.583,1.9,3.093A60.38,60.38,0,0,0,26.9,389.351q1.444.964,2.946,1.843a58.41,58.41,0,0,0,19.894,7.247,59.143,59.143,0,0,0,9.778.811h.168a59.184,59.184,0,0,0,9.948-.868,58.583,58.583,0,0,0,15.6-5.056q2.2-1.075,4.293-2.322,1.327-.791,2.608-1.647a60.407,60.407,0,0,0,17.282-17.647q.812-1.274,1.567-2.589c.823-1.432,1.588-2.911,2.292-4.412a59.83,59.83,0,0,0,2.326-5.706,60.983,60.983,0,0,0,2.59-10.12,62.007,62.007,0,0,0,.837-10.118h.333V298.3A20.312,20.312,0,0,0,116.671,288.178Zm-76.879,50.58a20.154,20.154,0,0,1,18.414-20.223c.49-.038.984-.06,1.481-.06h.061c.517,0,1.029.018,1.535.06a19.561,19.561,0,0,1,8.358,2.605,20.3,20.3,0,0,1,9.95,15.465,21,21,0,0,1,.111,2.158h0a20.92,20.92,0,0,1-.111,2.158,20.343,20.343,0,0,1-9.949,15.467,19.571,19.571,0,0,1-8.461,2.625q-.716.051-1.442.053h-.055c-.467,0-.928-.018-1.388-.053a20.151,20.151,0,0,1-18.5-20.245Z" transform="translate(0 -227.469)" fill="#fff"/>
  </g>
</svg>
