<svg id="logo512" xmlns="http://www.w3.org/2000/svg" width="512" height="512" viewBox="0 0 512 512">
  <rect id="Rectangle_1447" data-name="Rectangle 1447" width="512" height="512" rx="12" fill="#231f20"/>
  <g id="brand-logo-white-127-120" transform="translate(6 10)">
    <path id="Path_1" data-name="Path 1" d="M889.151,335.949c.017,31.849-24.627,57.723-55.136,57.889h-.309c-28.354,0-52.139-22.32-55.146-51.747V329.8a59.136,59.136,0,0,1,7.115-22.8c9.9-17.917,28.216-28.951,48.031-28.942h.309C864.519,278.24,889.155,304.106,889.151,335.949Z" transform="translate(-390.397 -133.346)" fill="#fff"/>
    <path id="Path_2" data-name="Path 2" d="M861.571,614.008V671.9h-.309a88.654,88.654,0,0,1-21.189,57.883,83.021,83.021,0,0,1-6.227,6.537A80.936,80.936,0,0,1,779.5,758.7H776.63a53.323,53.323,0,0,1-25.98-7.547,56.888,56.888,0,0,1-20.621-21.379,59.18,59.18,0,0,1-7.09-22.78v-12.3a58.628,58.628,0,0,1,16.752-35.6,28.96,28.96,0,0,0,10.171-16.113h.808V607.857a59.226,59.226,0,0,1,5.544-19.751q.733-1.561,1.57-3.039c9.91-17.909,28.219-28.939,48.032-28.937h.309c30.5.178,55.136,26.039,55.136,57.879Z" transform="translate(-362.507 -266.696)" fill="#fff"/>
    <path id="Path_3" data-name="Path 3" d="M325.278,28.942C315.376,11.032,297.071,0,277.261,0H55.445C30.35.009,8.388,17.608,1.893,42.911s4.1,52.007,25.826,65.112a53.284,53.284,0,0,0,27.725,7.755H277.261c19.81-.006,38.113-11.042,48.017-28.952a60.1,60.1,0,0,0,0-57.884Zm-73.419,80.419-.135-.078a.838.838,0,0,0,.135.073c.259.141.523.286.793.422C252.383,109.642,252.119,109.506,251.859,109.361Zm1.59.828a.6.6,0,0,0-.13-.062l-.1-.052.229.1c.145.083.3.146.449.224C253.769,110.334,253.594,110.261,253.45,110.188Z" transform="translate(0.001 0)" fill="#fff"/>
    <path id="Path_4" data-name="Path 4" d="M325.169,307a56.809,56.809,0,0,0-20.182-20.932,53.2,53.2,0,0,0-27.571-7.677h-.155v-.333H166.351v.333h-.469a159.634,159.634,0,0,0-82.707,23.019q-4.427,2.67-8.665,5.589a171.072,171.072,0,0,0-46.79,48.693q-2.877,4.5-5.484,9.2A177.047,177.047,0,0,0,2.293,422.779,182.225,182.225,0,0,0,0,451.555v.161a182.505,182.505,0,0,0,2.328,28.942,176.705,176.705,0,0,0,20.107,57.889q2.493,4.528,5.295,8.848a172.388,172.388,0,0,0,27.725,33.35A168.243,168.243,0,0,0,74.974,596.4q4.023,2.758,8.211,5.272a159.313,159.313,0,0,0,82.7,23.05h.469a159.248,159.248,0,0,0,71.2-16.945q6.132-3.076,11.966-6.641,3.7-2.264,7.269-4.71A168.422,168.422,0,0,0,277.227,579.9a172.709,172.709,0,0,0,27.725-33.949q2.264-3.643,4.367-7.406c2.293-4.1,4.427-8.327,6.387-12.621a173.729,173.729,0,0,0,6.481-16.321,178.181,178.181,0,0,0,7.219-28.947,181.931,181.931,0,0,0,2.333-28.942h.927V335.949A59.287,59.287,0,0,0,325.169,307ZM110.9,451.685c.01-30.314,22.368-55.515,51.322-57.847,1.366-.109,2.742-.172,4.128-.172h.17c1.441,0,2.867.052,4.278.172a53.524,53.524,0,0,1,23.293,7.453,58.2,58.2,0,0,1,27.73,44.238,61.618,61.618,0,0,1,.309,6.172h0a61.4,61.4,0,0,1-.31,6.174,59.378,59.378,0,0,1-7.093,22.768,57.076,57.076,0,0,1-20.636,21.473,53.549,53.549,0,0,1-23.582,7.51q-1.994.146-4.018.151h-.155c-1.3,0-2.588-.052-3.869-.151-29.075-2.2-51.58-27.479-51.567-57.91Z" transform="translate(0 -133.346)" fill="#fff"/>
  </g>
</svg>
